<?xml version="1.0" encoding="UTF-8"?>
<svg xmlns="http://www.w3.org/2000/svg" width="64" height="64" viewBox="0 0 64 64">
  <defs>
    <linearGradient id="g" x1="0" y1="0" x2="1" y2="1">
      <stop offset="0%" stop-color="#3a86ff"/>
      <stop offset="100%" stop-color="#4cc9f0"/>
    </linearGradient>
  </defs>
  <rect width="64" height="64" rx="12" fill="url(#g)"/>
  <g fill="#ffffff" opacity="0.95">
    <!-- Simple calculator/ledger glyph -->
    <rect x="18" y="16" width="28" height="32" rx="4" fill="#ffffff" opacity="0.18"/>
    <rect x="22" y="20" width="20" height="4" rx="2"/>
    <rect x="22" y="28" width="8" height="8" rx="2"/>
    <rect x="34" y="28" width="8" height="8" rx="2"/>
    <rect x="22" y="40" width="20" height="4" rx="2"/>
  </g>
  <!-- Monogram 'CA' -->
  <g transform="translate(0,1)">
    <path d="M12 32c0-11.045 8.955-20 20-20s20 8.955 20 20-8.955 20-20 20-20-8.955-20-20zm8.5 0c0 6.351 5.149 11.5 11.5 11.5 3.26 0 6.207-1.38 8.252-3.59l-3.14-2.32c-1.3 1.36-3.11 2.2-5.112 2.2-4.12 0-7.46-3.34-7.46-7.79s3.34-7.79 7.46-7.79c2.002 0 3.812.84 5.112 2.2l3.14-2.32C38.207 21.88 35.26 20.5 32 20.5 25.649 20.5 20.5 25.649 20.5 32z" fill="#ffffff" opacity="0.18"/>
    <text x="32" y="37" text-anchor="middle" font-family="'Space Grotesk', 'Inter', system-ui, sans-serif" font-size="18" font-weight="700" fill="#ffffff">CA</text>
  </g>
</svg>
